<svg width="214" height="161" viewBox="0 0 214 161" fill="none" xmlns="http://www.w3.org/2000/svg">
<g filter="url(#filter0_d_37_11232)">
<rect x="10" y="8" width="190" height="137" rx="12" fill="white"/>
</g>
<g clip-path="url(#clip0_37_11232)">
<path d="M82.6808 68.8433C82.9602 69.1847 83.1943 69.5597 83.3772 69.9592C87.3721 77.2954 91.3713 84.6295 95.3749 91.9614C95.5482 92.3576 95.7687 92.7322 96.0319 93.0773C96.2684 93.0773 96.5378 93.1354 96.8072 93.1354L107.077 93.0967H110.927H111.394C111.432 93.095 111.47 93.1029 111.505 93.1195C111.539 93.1361 111.569 93.1609 111.591 93.1917C111.613 93.2225 111.627 93.2583 111.632 93.2958C111.636 93.3333 111.631 93.3712 111.617 93.4063C111.505 93.6449 111.394 93.8901 111.275 94.1287L108.719 99.0181L100.46 114.802C100.283 115.144 100.079 115.447 99.8888 115.802C99.8761 115.826 99.8568 115.847 99.8331 115.861C99.8093 115.875 99.7819 115.883 99.7541 115.883C99.7262 115.883 99.6988 115.875 99.6751 115.861C99.6513 115.847 99.632 115.826 99.6194 115.802C99.4288 115.473 99.2317 115.157 99.0543 114.802C93.7235 104.744 88.3971 94.6878 83.075 84.6338C80.5125 79.7917 77.9654 74.9389 75.4336 70.0753C74.7765 68.7852 74.7174 68.8368 76.1629 68.8368H81.6492C82.0237 68.8433 82.372 68.8433 82.6808 68.8433Z" fill="#8400AE"/>
<path d="M106.045 126C105.947 125.91 105.835 125.845 105.789 125.748C104.639 123.665 103.503 121.581 102.353 119.498C102.276 119.367 102.235 119.218 102.235 119.066C102.235 118.914 102.276 118.765 102.353 118.634C102.885 117.614 103.391 116.582 103.91 115.557L121.131 81.744C122.778 78.4973 124.425 75.2506 126.072 72.004C126.335 71.4944 126.617 70.9913 126.88 70.4752C126.946 70.3364 127.054 70.2209 127.189 70.1447C127.325 70.0685 127.481 70.0352 127.636 70.0495H130.317C131.992 70.0495 133.668 70.0495 135.336 70.0495C135.53 70.0575 135.722 70.0878 135.908 70.1398C135.954 70.1398 136.013 70.2688 135.993 70.3204C135.923 70.5419 135.835 70.7576 135.731 70.9655L132.735 76.545C124.119 92.5892 115.5 108.631 106.88 124.671C106.683 125.045 106.479 125.419 106.269 125.781C106.204 125.862 106.129 125.936 106.045 126Z" fill="#8400AE"/>
<path d="M100.644 55.6136V51.1435C100.64 50.9147 100.655 50.686 100.69 50.4598C100.701 50.4024 100.731 50.35 100.775 50.3105C100.819 50.271 100.874 50.2464 100.933 50.2405C101.086 50.2137 101.239 50.1965 101.393 50.1888H111.085H111.433C111.53 50.1885 111.624 50.2242 111.696 50.2887C111.768 50.3532 111.812 50.4419 111.821 50.5372C111.821 50.8016 111.854 51.0661 111.854 51.337C111.854 52.253 111.854 53.1689 111.854 54.0849C111.854 56.1103 111.854 58.1357 111.854 60.1611C111.845 60.4252 111.816 60.6882 111.768 60.9481C111.768 61.0061 111.676 61.0706 111.617 61.1029C111.548 61.1379 111.472 61.1577 111.394 61.1609H110.927H101.584H101.117C100.796 61.1609 100.664 60.9997 100.651 60.6384C100.638 60.2772 100.651 60.0321 100.651 59.7225L100.644 55.6136Z" fill="#8400AE"/>
<path d="M130.238 50.1373H126.953C126.72 50.1415 126.487 50.1264 126.256 50.0921C126.205 50.0699 126.159 50.0379 126.121 49.9981C126.082 49.9582 126.052 49.9112 126.033 49.8599C125.984 49.7144 125.962 49.5615 125.967 49.4084C125.967 47.0798 125.967 44.7576 125.967 42.4291C125.961 42.2768 125.978 42.1245 126.02 41.9775C126.038 41.9256 126.066 41.8777 126.104 41.8368C126.141 41.7958 126.186 41.7625 126.236 41.7389C126.386 41.6988 126.541 41.6814 126.696 41.6873C129.066 41.6873 131.438 41.6873 133.812 41.6873C133.967 41.6817 134.122 41.6991 134.272 41.7389C134.378 41.7767 134.465 41.8529 134.515 41.9517C134.562 42.0976 134.582 42.2505 134.574 42.4033V49.389C134.578 49.5395 134.558 49.6896 134.515 49.8341C134.496 49.8864 134.466 49.9345 134.428 49.9755C134.39 50.0164 134.343 50.0495 134.292 50.0727C134.105 50.1199 133.913 50.1417 133.72 50.1373H130.238Z" fill="#8400AE"/>
<path d="M101.696 28.567C101.696 29.3282 101.663 30.0893 101.65 30.8505C101.639 30.9249 101.604 30.9942 101.551 31.0485C101.498 31.1029 101.429 31.1396 101.354 31.1536C101.236 31.1536 101.124 31.1536 101.006 31.1536H97.0634C96.9082 31.1538 96.7536 31.1343 96.6034 31.0956C96.5344 31.0622 96.4805 31.0047 96.4523 30.9343C96.4205 30.8231 96.405 30.708 96.4063 30.5925C96.4063 29.2637 96.4063 27.9328 96.4063 26.5997C96.411 26.4895 96.422 26.3797 96.4392 26.2707C96.448 26.2136 96.474 26.1604 96.5138 26.1179C96.5536 26.0754 96.6054 26.0455 96.6626 26.0321C96.7724 25.9951 96.8881 25.9776 97.0042 25.9804H101.071C101.188 25.9767 101.304 25.9964 101.413 26.0385C101.511 26.0888 101.587 26.1709 101.63 26.2707C101.67 26.4178 101.688 26.57 101.682 26.7222C101.682 27.3286 101.682 27.9414 101.682 28.5477L101.696 28.567Z" fill="#8400AE"/>
</g>
<defs>
<filter id="filter0_d_37_11232" x="0" y="0" width="214" height="161" filterUnits="userSpaceOnUse" color-interpolation-filters="sRGB">
<feFlood flood-opacity="0" result="BackgroundImageFix"/>
<feColorMatrix in="SourceAlpha" type="matrix" values="0 0 0 0 0 0 0 0 0 0 0 0 0 0 0 0 0 0 127 0" result="hardAlpha"/>
<feOffset dx="2" dy="4"/>
<feGaussianBlur stdDeviation="6"/>
<feComposite in2="hardAlpha" operator="out"/>
<feColorMatrix type="matrix" values="0 0 0 0 0.215686 0 0 0 0 0 0 0 0 0 0.286275 0 0 0 0.15 0"/>
<feBlend mode="multiply" in2="BackgroundImageFix" result="effect1_dropShadow_37_11232"/>
<feBlend mode="normal" in="SourceGraphic" in2="effect1_dropShadow_37_11232" result="shape"/>
</filter>
<clipPath id="clip0_37_11232">
<rect width="61" height="100" fill="white" transform="translate(75 26)"/>
</clipPath>
</defs>
</svg>
